<?xml version="1.0" encoding="utf-8"?>
<!-- Generator: Adobe Illustrator 19.0.0, SVG Export Plug-In . SVG Version: 6.00 Build 0)  -->
<svg version="1.1" id="Calque_1" xmlns="http://www.w3.org/2000/svg" xmlns:xlink="http://www.w3.org/1999/xlink" x="0px" y="0px"
	 viewBox="897.8 183.3 91 91" style="enable-background:new 897.8 183.3 91 91;" xml:space="preserve">
<g id="XMLID_7_">
	<path id="XMLID_5_" d="M962.1,224.6L962.1,224.6c0.7-0.8,1.1-1.8,1.1-2.9c0-2.4-1.9-4.3-4.3-4.3c-1.3,0-2.4,0.5-3.1,1.4l0,0
		l-12.5,13.6l-12.5-13.6l0,0c-0.8-0.8-1.9-1.4-3.1-1.4c-2.4,0-4.3,1.9-4.3,4.3c0,1.1,0.4,2.1,1.1,2.9l0,0l15.6,17.1
		c0.8,0.9,1.9,1.4,3.1,1.4c1.2,0,2.3-0.5,3.2-1.4L962.1,224.6z M988.8,228.8c0-25.1-20.4-45.5-45.5-45.5s-45.5,20.4-45.5,45.5
		s20.4,45.5,45.5,45.5C968.5,274.3,988.8,253.9,988.8,228.8L988.8,228.8z M906.4,228.8c0-20.4,16.6-37,37-37s37,16.6,37,37
		s-16.6,37-37,37C923,265.7,906.4,249.2,906.4,228.8L906.4,228.8z"/>
</g>
</svg>
