<?xml version="1.0" encoding="utf-8"?>
<!-- Generator: Adobe Illustrator 19.0.0, SVG Export Plug-In . SVG Version: 6.00 Build 0)  -->
<svg version="1.1" id="Calque_1" xmlns="http://www.w3.org/2000/svg" xmlns:xlink="http://www.w3.org/1999/xlink" x="0px" y="0px"
	 viewBox="0 0 351 293.8" style="enable-background:new 0 0 351 293.8;" xml:space="preserve">
<style type="text/css">
	.st0{fill:#2A4158;}
</style>
<g>
	<path class="st0" d="M284.1,43.2h-68.6v27.5h68.6c21.6,0,39.3,17.7,39.3,39.3v116.9c0,21.6-17.7,39.3-39.3,39.3H66.9
		c-21.6,0-39.3-17.7-39.3-39.3V110.1c0-21.6,17.7-39.3,39.3-39.3h68.6V43.2H66.9C30,43.2,0,73.2,0,110.1v116.9
		c0,36.9,30,66.9,66.9,66.9h217.2c36.9,0,66.9-30,66.9-66.9V110.1C351,73.2,321,43.2,284.1,43.2z"/>
	<path class="st0" d="M135.3,145.6c-2.6-2.6-6.1-4.5-10-4.5c-7.8,0-13.9,6.1-13.9,13.9c0,3.6,1.3,6.8,3.6,9.4l50.4,55.2
		c2.6,2.9,6.1,4.5,10,4.5c3.9,0,7.4-1.6,10.3-4.5l50.7-55.3c2.3-2.6,3.6-5.8,3.5-9.4c0-7.8-6.1-13.9-13.9-13.9
		c-4.2,0-7.8,1.6-10,4.5l-26.7,29l-0.2-160.8c-0.2-3.7-1.5-7.5-4.4-10.1c-5.7-5.2-14.4-4.8-19.6,0.9c-2.4,2.6-3.6,5.9-3.7,9.3
		l0,160.2L135.3,145.6z"/>
</g>
</svg>
