<?xml version="1.0" encoding="utf-8"?>
<!-- Generator: Adobe Illustrator 19.0.0, SVG Export Plug-In . SVG Version: 6.00 Build 0)  -->
<svg version="1.1" id="Calque_1" xmlns="http://www.w3.org/2000/svg" xmlns:xlink="http://www.w3.org/1999/xlink" x="0px" y="0px"
	 viewBox="-48.8 215.4 188.7 44.9" style="enable-background:new -48.8 215.4 188.7 44.9;" xml:space="preserve">
<style type="text/css">
	.st0{fill:#2A4158;}
</style>
<g id="XMLID_629_">
	<path id="XMLID_631_" class="st0" d="M14.9,225.2c-0.2-0.4-0.5-0.6-0.9-0.6s-0.8,0.2-0.9,0.6L2.4,249.6L1.8,251h2.3l0.2-0.6
		l9.8-22.2l9.8,22.2L24,251h2.3l-0.6-1.4L14.9,225.2z"/>
	<path id="XMLID_665_" class="st0" d="M43.9,237.4c1.9-1.3,3-3.3,3-5.5c0-3.8-3.5-7-7.7-7h-8.9c-0.6,0-1,0.4-1,1v11.8l-0.1,1l0,0
		v11.1c0,0.6,0.4,1.2,1,1.2h10.4c2,0,3.9-0.9,5.4-2.2s2.3-3.2,2.3-5C48.4,241.1,46.5,238.5,43.9,237.4z M39.2,227
		c3.1,0,5.6,2.2,5.6,4.9s-2.5,4.9-5.6,4.9h-7.8V227C31.4,227,39.2,227,39.2,227z M40.7,239c3.1,0,5.6,2.1,5.6,4.8s-2.5,4.9-5.6,4.9
		l-9.3,0.1V239H40.7z"/>
	<path id="XMLID_667_" class="st0" d="M62.3,225.2c-0.2-0.4-0.5-0.6-0.9-0.6s-0.8,0.2-0.9,0.6l-10.7,24.4l-0.6,1.4h2.3l0.2-0.6
		l9.8-22.2l9.8,22.2l0.2,0.6h2.3l-0.6-1.4L62.3,225.2z"/>
	<polygon id="XMLID_668_" class="st0" points="97,225 93.9,225 93.6,225.2 81.2,237 78,237 78,225 76,225 76,251 78,251 78,239 
		81.2,239 93.6,250.8 93.9,251 97,251 95.1,249.3 83.1,237.8 95.1,226.6 	"/>
	<path id="XMLID_669_" class="st0" d="M115,242.4c0,3.6-3.1,6.6-7.2,6.6s-7.3-3-7.3-6.6l0.1-16.5l0.2-0.9H98v17.4
		c0,2.3,1.3,4.5,3.1,6.1s4.3,2.5,6.9,2.5s5-0.9,6.8-2.5s2.8-3.8,2.8-6.1l0.1-16.5l0.1-0.9H115V242.4z"/>
	<path id="XMLID_670_" class="st0" d="M136.9,239.4c-1.7-1.1-3.9-1.9-6-2.7c-2-0.7-3.8-1.4-5.2-2.3c-1.4-0.9-2.1-1.7-2.1-2.7
		c0-1.3,0.7-2.6,1.9-3.5c1.3-1,3-1.5,4.8-1.5s3.5,0.5,4.8,1.5c1.2,1,1.9,2.2,1.9,3.5v1.3h2v-1.3c0-1.9-0.9-3.7-2.5-5.1
		c-1.7-1.3-3.8-2.1-6.2-2.1s-4.5,0.7-6.2,2.1s-2.6,3.2-2.6,5.1c0,1.7,1,3.2,3,4.5c1.7,1,3.8,1.9,5.9,2.6c2,0.7,3.9,1.4,5.3,2.3
		c1.4,0.9,2.1,1.8,2.1,2.8c0,1.3-0.8,2.5-2.2,3.5s-3.4,1.6-5.3,1.6c-2,0-3.8-0.6-5.3-1.6c-1.4-1-2-2.2-2-3.5V243h-2v0.9
		c0,1,0.1,1.9,0.6,2.8c0.5,0.9,1.1,1.6,2,2.3c1.8,1.3,4.2,2.1,6.7,2.1s4.9-0.7,6.7-2.1c1.8-1.4,2.9-3.2,2.9-5.1
		C139.9,242.2,138.9,240.7,136.9,239.4z"/>
</g>
<g id="XMLID_166_">
	<path id="XMLID_488_" class="st0" d="M-48.8,237.8c0,4.5,1.3,8.7,3.6,12.2l15.1-34.4C-40.7,217.5-48.8,226.7-48.8,237.8z"/>
	<path id="XMLID_518_" class="st0" d="M-22.6,215.7L-7.5,250c2.3-3.5,3.6-7.7,3.6-12.2C-3.9,226.7-12,217.5-22.6,215.7z"/>
	<path id="XMLID_524_" class="st0" d="M-26.4,215.4c-0.2,0-0.5,0-0.7,0l-16.3,37.1c4.1,4.8,10.2,7.8,17,7.8s12.9-3,17-7.8
		l-16.3-37.1C-25.9,215.4-26.1,215.4-26.4,215.4z M-22.8,237h3.8v1h-3.8c-0.3,2-1.8,3-3.6,3s-3.3-1-3.6-3h-4v-1h4.1
		c0.3-2,1.8-3,3.6-3C-24.6,234-23.1,235-22.8,237z"/>
</g>
</svg>
