<?xml version="1.0" encoding="utf-8"?>
<!-- Generator: Adobe Illustrator 19.0.0, SVG Export Plug-In . SVG Version: 6.00 Build 0)  -->
<svg version="1.1" id="Calque_1" xmlns="http://www.w3.org/2000/svg" xmlns:xlink="http://www.w3.org/1999/xlink" x="0px" y="0px"
	 viewBox="-143 65.4 351.7 351.6" style="enable-background:new -143 65.4 351.7 351.6;" xml:space="preserve">
<style type="text/css">
	.st0{fill:#2A4158;}
</style>
<g>
	<path class="st0" d="M-76.6,96c-19.8,0-35.9,16.1-35.9,35.9c0,19.8,16.1,35.9,35.9,35.9s35.9-16.1,35.9-35.9
		C-40.7,112.1-56.8,96-76.6,96z M-47.5,131.9c0,16-13,29.1-29.1,29.1s-29.1-13-29.1-29.1s13-29.1,29.1-29.1S-47.5,115.9-47.5,131.9z
		"/>
	<path class="st0" d="M-15,121.5h-6.6c-3.4,0-7-2.6-8.3-6.2c-0.6-1.6-1.3-3.3-2.1-4.9c-1.6-3.4-1-7.7,1.5-10.2l4.8-4.8
		c0.9-0.9,1.4-2.1,1.4-3.4c0-1.3-0.5-2.4-1.4-3.4l-7.7-7.7c-0.9-0.9-2.1-1.4-3.4-1.4s-2.4,0.5-3.4,1.4l-4.8,4.8
		c-1.5,1.5-3.8,2.4-6.2,2.4c-1.4,0-2.8-0.3-4-0.9c-1.5-0.7-3.2-1.4-4.9-2.1c-3.5-1.2-6.2-4.8-6.2-8.3v-6.7c0-2.6-2.1-4.8-4.8-4.8
		h-11c-2.6,0-4.8,2.1-4.8,4.8v6.7c0,3.4-2.7,7-6.1,8.2c-1.6,0.6-3.3,1.2-5,2.1c-1.2,0.6-2.6,0.9-4,0.9c-2.4,0-4.7-0.9-6.2-2.4
		l-4.8-4.8c-0.9-0.9-2.1-1.4-3.4-1.4s-2.4,0.5-3.4,1.4l-7.8,7.8c-0.9,0.9-1.4,2.1-1.4,3.4c0,1.3,0.5,2.4,1.4,3.4l4.8,4.8
		c2.4,2.5,3.1,6.9,1.5,10.2c-0.7,1.5-1.4,3.2-2.1,4.9c-1.3,3.5-4.8,6.2-8.3,6.2h-6.7c-2.6,0-4.8,2.1-4.8,4.8v11
		c0,2.6,2.1,4.8,4.8,4.8h6.7c3.4,0,7,2.7,8.3,6.2c0.6,1.7,1.3,3.4,2.1,4.9c1.6,3.4,1,7.7-1.5,10.2l-4.8,4.8c-1.9,1.9-1.9,4.9,0,6.7
		l7.8,7.8c0.9,0.9,2.1,1.4,3.4,1.4s2.4-0.5,3.4-1.4l4.8-4.8c1.5-1.5,3.8-2.4,6.2-2.4c1.4,0,2.8,0.3,4,0.9c1.5,0.7,3.2,1.4,4.9,2.1
		c3.5,1.3,6.2,4.8,6.2,8.3v6.7c0,2.6,2.1,4.7,4.8,4.7l1,0h9.9c2.6,0,4.8-2.1,4.8-4.8v-6.7c0-3.4,2.7-7,6.2-8.3
		c1.8-0.6,3.4-1.3,4.9-2.1c1.2-0.6,2.6-0.9,4-0.9c2.4,0,4.7,0.9,6.2,2.4l4.8,4.8c0.9,0.9,2.1,1.4,3.4,1.4s2.4-0.5,3.4-1.4l7.8-7.8
		c0.9-0.9,1.4-2.1,1.4-3.4c0-1.3-0.5-2.5-1.4-3.4l-4.8-4.8c-2.4-2.4-3.1-6.8-1.5-10.2c0.8-1.5,1.5-3.2,2.1-4.9
		c1.3-3.5,4.8-6.2,8.3-6.2h6.7c2.6,0,4.8-2.1,4.8-4.8v-11C-10.2,123.6-12.3,121.5-15,121.5z M-36.4,145.9c-0.5,1.5-1.1,3-1.8,4.3
		c-2.9,5.9-1.7,13.5,2.8,18l3.3,3.3l-4.9,4.9l-3.3-3.3c-2.8-2.8-6.7-4.4-11-4.4c-2.5,0-4.9,0.5-7,1.5c-1.3,0.6-2.8,1.2-4.3,1.8
		c-6.2,2.2-10.7,8.4-10.7,14.7v4.7H-80v-4.6c0-6.3-4.5-12.4-10.7-14.7c-1.5-0.6-3-1.2-4.4-1.8c-2.1-1-4.5-1.5-6.9-1.5
		c-4.2,0-8.2,1.6-11,4.4l-3.3,3.3l-4.9-4.9l3.3-3.3c4.5-4.5,5.6-12,2.8-18c-0.6-1.3-1.2-2.8-1.8-4.3c-2.2-6.2-8.4-10.7-14.7-10.7
		h-4.7v-6.9h4.7c6.3,0,12.5-4.5,14.7-10.7c0.6-1.5,1.2-3,1.8-4.3c2.8-5.9,1.7-13.5-2.7-18l-3.4-3.4l4.9-4.9l3.3,3.3
		c2.8,2.8,6.7,4.4,11,4.4c2.5,0,4.9-0.5,7-1.5c1.5-0.7,2.9-1.3,4.3-1.8c6.2-2.2,10.8-8.4,10.8-14.7v-4.7h6.9v4.7
		c0,6.3,4.5,12.5,10.7,14.7c1.5,0.6,3,1.2,4.3,1.8c2.1,1,4.5,1.6,7,1.6c4.2,0,8.2-1.6,11-4.4l3.3-3.3L-32,92l-3.3,3.3
		c-4.5,4.5-5.6,12-2.8,18c0.7,1.5,1.3,2.9,1.8,4.3c2.2,6.2,8.4,10.7,14.7,10.7h4.6v6.9h-4.7C-28,135.2-34.1,139.7-36.4,145.9z"/>
</g>
<g>
	<polygon class="st0" points="62.3,417 62.3,417 62.3,417 	"/>
	<path class="st0" d="M73.6,209.9c-39.8,0-72.1,32.3-72.1,72.1c0,39.8,32.3,72.1,72.1,72.1c39.8,0,72.1-32.3,72.1-72.1
		C145.7,242.2,113.4,209.9,73.6,209.9z M73.6,344.1c-34.3,0-62.1-27.9-62.1-62.1c0-34.3,27.9-62.1,62.1-62.1s62.1,27.9,62.1,62.1
		C135.7,316.3,107.8,344.1,73.6,344.1z"/>
	<path class="st0" d="M200.9,262.6h-13.7c-8,0-16.1-6-19-14.1c-1.2-3.4-2.6-6.7-4.2-10c-3.7-7.7-2.3-17.7,3.4-23.4l9.9-9.9
		c1.5-1.5,2.3-3.4,2.3-5.5c0-2.1-0.8-4-2.3-5.5l-16-16c-1.5-1.5-3.4-2.3-5.5-2.3c-2.1,0-4,0.8-5.5,2.3l-9.9,9.9
		c-3.5,3.5-8.7,5.5-14.2,5.5c-3.3,0-6.5-0.7-9.2-2c-3.3-1.6-6.7-3-10-4.2c-8-2.8-14.1-11-14.1-19v-13.9c0-4.3-3.5-7.8-7.8-7.8H62.4
		c-4.3,0-7.8,3.5-7.8,7.8v13.9c0,8-6.1,16.2-14.1,19c-3.5,1.2-6.8,2.6-10.1,4.2c-2.7,1.3-5.9,2-9.2,2c-5.6,0-10.7-2-14.2-5.5
		l-9.9-9.9c-1.5-1.5-3.4-2.3-5.5-2.3c-2.1,0-4,0.8-5.5,2.3L-30,194.3c-1.5,1.5-2.3,3.4-2.3,5.5c0,2.1,0.8,4,2.3,5.5l9.9,9.9
		c5.6,5.7,7.1,15.7,3.4,23.4c-1.6,3.3-3,6.7-4.2,10c-2.9,8.1-11,14.1-19,14.1h-13.9c-4.3,0-7.8,3.5-7.8,7.8v22.7
		c0,4.3,3.5,7.8,7.8,7.8h13.9c8,0,16.2,6.1,19,14.1c1.2,3.3,2.6,6.7,4.2,10c3.7,7.7,2.3,17.7-3.4,23.4l-9.9,9.9c-3,3-3,8,0,11
		l16.1,16.1c1.5,1.5,3.4,2.3,5.5,2.3c2.1,0,4-0.8,5.5-2.3l9.9-9.9c3.5-3.5,8.7-5.5,14.2-5.5c3.2,0,6.4,0.7,9.2,2
		c3.3,1.6,6.7,3,10,4.2c8,2.9,14.1,11,14.1,19v13.9c0,4.3,3.5,7.7,7.8,7.7l0,0h22.5c4.3,0,7.8-3.5,7.8-7.8v-13.9
		c0-8,6.1-16.2,14.1-19c3.3-1.2,6.7-2.6,10-4.2c2.7-1.3,5.9-2,9.2-2c5.6,0,10.7,2,14.2,5.5l9.9,9.9c1.5,1.5,3.4,2.3,5.5,2.3
		c2.1,0,4-0.8,5.5-2.3l16.1-16.1c3-3,3-8,0-11l-9.9-9.9c-5.7-5.7-7.1-15.7-3.4-23.4c1.6-3.2,3-6.6,4.2-10c2.9-8,11-14.1,19-14.1
		h13.9c4.3,0,7.8-3.5,7.8-7.8v-22.7C208.7,266.1,205.2,262.6,200.9,262.6z M198.7,290.9H187c-12.1,0-24.1,8.7-28.4,20.7
		c-1.2,3.3-2.4,6.3-3.7,8.9l-0.1,0.1c-5.5,11.5-3.3,26.2,5.3,34.8l8.3,8.3l-13,13l-8.3-8.3c-5.4-5.4-13-8.4-21.3-8.4
		c-4.8,0-9.5,1-13.5,3c-2.8,1.4-5.8,2.6-9,3.8c-12,4.2-20.7,16.2-20.7,28.4v11.7H64.5v-11.6c0-12.1-8.7-24.1-20.7-28.4
		c-3.2-1.2-6.3-2.4-9-3.8l-0.1-0.1c-4.1-1.9-8.8-2.9-13.4-2.9c-8.2,0-15.9,3.1-21.3,8.4l-8.3,8.3l-13-13l8.3-8.3
		c8.6-8.6,10.9-23.3,5.3-34.8c-1.4-2.8-2.6-5.8-3.8-9c-4.2-12-16.2-20.7-28.4-20.7h-11.7v-18.3h11.7c12.2,0,24.1-8.7,28.4-20.7
		c1.2-3.2,2.4-6.2,3.8-9c5.5-11.5,3.3-26.1-5.3-34.8l-8.4-8.4l13-13l8.3,8.3c5.4,5.4,13,8.4,21.3,8.4c4.8,0,9.5-1,13.5-3
		c3.1-1.5,6.1-2.7,9-3.8c12.1-4.2,20.9-16.2,20.9-28.5v-11.7h18.3v11.7c0,12.2,8.7,24.2,20.7,28.4c3.2,1.2,6.2,2.4,9,3.8
		c4.1,2,8.8,3,13.6,3c8.2,0,15.9-3.1,21.3-8.4l8.3-8.3l12.9,12.9l-8.3,8.3c-8.6,8.6-10.9,23.3-5.3,34.8c1.5,3.1,2.7,6,3.8,9
		c4.3,12.1,16.3,20.8,28.4,20.8h11.5V290.9z"/>
</g>
</svg>
