<?xml version="1.0" encoding="utf-8"?>
<!-- Generator: Adobe Illustrator 19.0.0, SVG Export Plug-In . SVG Version: 6.00 Build 0)  -->
<svg version="1.1" id="Calque_1" xmlns="http://www.w3.org/2000/svg" xmlns:xlink="http://www.w3.org/1999/xlink" x="0px" y="0px"
	 viewBox="23.4 277 353.2 393.3" style="enable-background:new 23.4 277 353.2 393.3;" xml:space="preserve">
<style type="text/css">
	.st0{fill:#2A4158;}
</style>
<g id="XMLID_2_">
	<path id="XMLID_19_" class="st0" d="M352.7,277H122.9c-13.2,0-23.9,10.7-23.9,23.8v53.4c-43.6,12.5-75.6,52.7-75.6,100.2
		s32,87.8,75.6,100.2v91.8c0,13.2,10.7,23.9,23.9,23.9h187.8c2.2,0,4.4-0.9,5.9-2.5l57.5-57.5c1.6-1.6,2.5-3.7,2.5-5.9V300.8
		C376.5,287.7,365.8,277,352.7,277L352.7,277z M122.9,293.8h229.8c3.9,0,7.1,3.2,7.1,7v25.4h-244v-25.4
		C115.8,296.9,119,293.8,122.9,293.8L122.9,293.8z M40.3,454.4c0-48.2,39.2-87.4,87.4-87.4s87.4,39.2,87.4,87.4
		s-39.2,87.4-87.4,87.4C79.5,541.9,40.3,502.6,40.3,454.4L40.3,454.4z M115.8,646.5V558c3.9,0.4,7.8,0.7,11.8,0.7
		c31.3,0,59.4-13.9,78.6-35.8h51.5c4.6,0,8.4-3.8,8.4-8.4c0-4.6-3.8-8.4-8.4-8.4h-39.5c7.3-12.8,12-27.2,13.3-42.6h26.2
		c4.6,0,8.4-3.8,8.4-8.4c0-4.6-3.8-8.4-8.4-8.4h-26.1c-1.1-15.4-5.6-29.8-12.7-42.6h38.8c4.6,0,8.4-3.8,8.4-8.4
		c0-4.6-3.8-8.4-8.4-8.4h-50.4c-19.1-22.7-47.7-37.1-79.6-37.1c-4,0-8,0.2-11.8,0.7V343h243.9v253.1h-33.6
		c-13.2,0-23.9,10.7-23.9,23.8v33.6H122.9C119,653.5,115.8,650.4,115.8,646.5L115.8,646.5z M319.1,641.6v-21.7c0-3.9,3.2-7.1,7-7.1
		h21.7L319.1,641.6z"/>
	<path id="XMLID_16_" class="st0" d="M290.7,404.1h27.9c4.6,0,8.4-3.8,8.4-8.4c0-4.6-3.8-8.4-8.4-8.4h-27.9c-4.6,0-8.4,3.8-8.4,8.4
		C282.3,400.3,286.1,404.1,290.7,404.1L290.7,404.1z"/>
	<path id="XMLID_13_" class="st0" d="M290.7,463.5h27.9c4.6,0,8.4-3.8,8.4-8.4c0-4.6-3.8-8.4-8.4-8.4h-27.9c-4.6,0-8.4,3.8-8.4,8.4
		C282.3,459.7,286.1,463.5,290.7,463.5L290.7,463.5z"/>
	<path id="XMLID_10_" class="st0" d="M290.7,522.9h27.9c4.6,0,8.4-3.8,8.4-8.4c0-4.6-3.8-8.4-8.4-8.4h-27.9c-4.6,0-8.4,3.8-8.4,8.4
		C282.3,519.1,286.1,522.9,290.7,522.9L290.7,522.9z"/>
	<path id="XMLID_7_" class="st0" d="M318.6,582.2c4.6,0,8.4-3.8,8.4-8.4c0-4.6-3.8-8.4-8.4-8.4H240c-4.6,0-8.4,3.8-8.4,8.4
		c0,4.6,3.8,8.4,8.4,8.4H318.6z"/>
	<path id="XMLID_3_" class="st0" d="M192.9,412l-10.2-10.2c-2.8-2.8-6.4-4.3-10.3-4.3s-7.6,1.5-10.3,4.3l-53.8,53.7l-14.9-14.9
		c-2.8-2.8-6.4-4.3-10.3-4.3c-3.9,0-7.6,1.5-10.3,4.3l-10.3,10.3c-5.7,5.7-5.7,15,0,20.7L97.9,507c2.8,2.8,6.4,4.3,10.3,4.3
		c3.9,0,7.6-1.5,10.3-4.3l74.3-74.3C198.6,427,198.6,417.7,192.9,412L192.9,412z M108.2,493.6l-32.3-32.3l7.2-7.2l19.3,19.3
		c3.3,3.3,8.6,3.3,11.9,0l58.1-58.1l7.2,7.2L108.2,493.6z"/>
</g>
</svg>
