<?xml version="1.0" encoding="utf-8"?>
<!-- Generator: Adobe Illustrator 19.0.0, SVG Export Plug-In . SVG Version: 6.00 Build 0)  -->
<svg version="1.1" id="Calque_1" xmlns="http://www.w3.org/2000/svg" xmlns:xlink="http://www.w3.org/1999/xlink" x="0px" y="0px"
	 viewBox="0 0 392 393.3" style="enable-background:new 0 0 392 393.3;" xml:space="preserve">
<style type="text/css">
	.st0{fill:#2A4158;}
</style>
<path class="st0" d="M375.7,247.7c-9,0-16.3,7.3-16.3,16.3v96.6H32.6V264c0-9-7.3-16.3-16.3-16.3C7.3,247.7,0,255,0,264v113
	c0,9,7.3,16.3,16.3,16.3h359.4c9,0,16.3-7.3,16.3-16.3V264C392,255,384.7,247.7,375.7,247.7L375.7,247.7z M375.7,247.7"/>
<path class="st0" d="M184.5,274.6c8.9,8.6,19.5,4.2,23.1,0l99.4-99.3c6.4-6.4,6.4-16.7,0-23.1c-6.4-6.4-16.7-6.4-23.1,0l-71.5,71.4
	V16.3C212.3,7.3,205,0,196,0c-9,0-16.3,7.3-16.3,16.3v207.3l-71.5-71.4c-6.4-6.4-16.7-6.4-23.1,0c-6.4,6.4-6.4,16.7,0,23.1
	L184.5,274.6z M184.5,274.6"/>
</svg>
