<?xml version="1.0" encoding="utf-8"?>
<!-- Generator: Adobe Illustrator 19.0.0, SVG Export Plug-In . SVG Version: 6.00 Build 0)  -->
<svg version="1.1" id="Calque_1" xmlns="http://www.w3.org/2000/svg" xmlns:xlink="http://www.w3.org/1999/xlink" x="0px" y="0px"
	 viewBox="0 0 1280 800" style="enable-background:new 0 0 1280 800;" xml:space="preserve">
<style type="text/css">
	.st0{fill-rule:evenodd;clip-rule:evenodd;}
</style>
<g id="XMLID_7_">
	<path id="XMLID_5_" class="st0" d="M642.1,384.6L642.1,384.6c0.7-0.8,1.1-1.8,1.1-2.9c0-2.4-1.9-4.3-4.3-4.3
		c-1.3,0-2.4,0.5-3.1,1.4l0,0l-12.5,13.6l-12.5-13.6l0,0c-0.8-0.8-1.9-1.4-3.1-1.4c-2.4,0-4.3,1.9-4.3,4.3c0,1.1,0.4,2.1,1.1,2.9h0
		l15.6,17.1c0.8,0.9,1.9,1.4,3.1,1.4c1.2,0,2.3-0.5,3.2-1.4L642.1,384.6z M668.8,388.8c0-25.1-20.4-45.5-45.5-45.5
		c-25.1,0-45.5,20.4-45.5,45.5c0,25.1,20.4,45.5,45.5,45.5C648.5,434.3,668.8,413.9,668.8,388.8L668.8,388.8z M586.4,388.8
		c0-20.4,16.6-37,37-37c20.4,0,37,16.6,37,37c0,20.4-16.6,37-37,37C603,425.7,586.4,409.2,586.4,388.8L586.4,388.8z M586.4,388.8"/>
</g>
</svg>
