<?xml version="1.0" encoding="utf-8"?>
<!-- Generator: Adobe Illustrator 19.0.0, SVG Export Plug-In . SVG Version: 6.00 Build 0)  -->
<svg version="1.1" id="Layer_1" xmlns="http://www.w3.org/2000/svg" xmlns:xlink="http://www.w3.org/1999/xlink" x="0px" y="0px"
	 viewBox="-637.7 -41.8 389.4 318" style="enable-background:new -637.7 -41.8 389.4 318;" xml:space="preserve">
<style type="text/css">
	.st0{fill:#2A4158;}
</style>
<path class="st0" d="M-248.6,130.4c-3.6-39.7-35-71.1-74.7-74.7c0-2.5,0-5,0-7.5c0-49.7-40.3-90-90-90c-36.5,0-69.4,22-83.3,55.8
	c-18.9-16.1-47.3-13.8-63.4,5.1c-8.8,10.3-12.4,24-10,37.3c-44.8,8.2-74.5,51.2-66.3,96c7.1,38.9,40.9,67.3,80.5,67.6h71.9v56.2h82
	V220h78.6C-278,215.9-244.5,175.8-248.6,130.4z M-412,266.2h-62v-84h-40.9l71.9-71.9l71.9,71.9H-412V266.2z"/>
</svg>
