<?xml version="1.0" encoding="utf-8"?>
<!-- Generator: Adobe Illustrator 19.0.0, SVG Export Plug-In . SVG Version: 6.00 Build 0)  -->
<svg version="1.1" id="Calque_1" xmlns="http://www.w3.org/2000/svg" xmlns:xlink="http://www.w3.org/1999/xlink" x="0px" y="0px"
	 viewBox="3 328.2 188.7 44.9" style="enable-background:new 3 328.2 188.7 44.9;" xml:space="preserve">
<style type="text/css">
	.st0{fill:#E5B028;}
</style>
<g>
	<g id="XMLID_629_">
		<path id="XMLID_631_" class="st0" d="M66.7,338c-0.2-0.4-0.5-0.6-0.9-0.6s-0.8,0.2-0.9,0.6l-10.7,24.4l-0.6,1.4h2.3l0.2-0.6
			l9.8-22.2l9.8,22.2l0.1,0.6h2.3l-0.6-1.4L66.7,338z"/>
		<path id="XMLID_665_" class="st0" d="M95.7,350.2c1.9-1.3,3-3.3,3-5.5c0-3.8-3.5-7-7.7-7h-8.9c-0.6,0-1,0.4-1,1v11.8l-0.1,1l0,0
			v11.1c0,0.6,0.4,1.2,1,1.2h10.4c2,0,3.9-0.9,5.4-2.2s2.3-3.2,2.3-5C100.2,353.9,98.3,351.3,95.7,350.2z M91,339.8
			c3.1,0,5.6,2.2,5.6,4.9c0,2.7-2.5,4.9-5.6,4.9h-7.8v-9.8C83.2,339.8,91,339.8,91,339.8z M92.5,351.8c3.1,0,5.6,2.1,5.6,4.8
			s-2.5,4.9-5.6,4.9l-9.3,0.1v-9.8H92.5z"/>
		<path id="XMLID_667_" class="st0" d="M114.1,338c-0.2-0.4-0.5-0.6-0.9-0.6s-0.8,0.2-0.9,0.6l-10.7,24.4l-0.6,1.4h2.3l0.2-0.6
			l9.8-22.2l9.8,22.2l0.2,0.6h2.3l-0.6-1.4L114.1,338z"/>
		<polygon id="XMLID_668_" class="st0" points="148.8,337.8 145.7,337.8 145.4,338 133,349.8 129.8,349.8 129.8,337.8 127.8,337.8 
			127.8,363.8 129.8,363.8 129.8,351.8 133,351.8 145.4,363.6 145.7,363.8 148.8,363.8 146.9,362.1 134.9,350.6 146.9,339.4 		"/>
		<path id="XMLID_669_" class="st0" d="M166.8,355.2c0,3.6-3.1,6.6-7.2,6.6s-7.3-3-7.3-6.6l0.1-16.5l0.2-0.9h-2.8v17.4
			c0,2.3,1.3,4.5,3.1,6.1c1.8,1.6,4.3,2.5,6.9,2.5s5-0.9,6.8-2.5c1.8-1.6,2.8-3.8,2.8-6.1l0.1-16.5l0.1-0.9h-2.8V355.2z"/>
		<path id="XMLID_670_" class="st0" d="M188.7,352.2c-1.7-1.1-3.9-1.9-6-2.7c-2-0.7-3.8-1.4-5.2-2.3c-1.4-0.9-2.1-1.7-2.1-2.7
			c0-1.3,0.7-2.6,1.9-3.5c1.3-1,3-1.5,4.8-1.5s3.5,0.5,4.8,1.5c1.2,1,1.9,2.2,1.9,3.5v1.3h2v-1.3c0-1.9-0.9-3.7-2.5-5.1
			c-1.7-1.3-3.8-2.1-6.2-2.1s-4.5,0.7-6.2,2.1c-1.7,1.4-2.6,3.2-2.6,5.1c0,1.7,1,3.2,3,4.5c1.7,1,3.8,1.9,5.9,2.6
			c2,0.7,3.9,1.4,5.3,2.3c1.4,0.9,2.1,1.8,2.1,2.8c0,1.3-0.8,2.5-2.2,3.5c-1.4,1-3.4,1.6-5.3,1.6c-2,0-3.8-0.6-5.3-1.6
			c-1.4-1-2-2.2-2-3.5v-0.9h-2v0.9c0,1,0.1,1.9,0.6,2.8c0.5,0.9,1.1,1.6,2,2.3c1.8,1.3,4.2,2.1,6.7,2.1s4.9-0.7,6.7-2.1
			c1.8-1.4,2.9-3.2,2.9-5.1C191.7,355,190.7,353.5,188.7,352.2z"/>
	</g>
	<g id="XMLID_166_">
		<path id="XMLID_488_" class="st0" d="M3,350.6c0,4.5,1.3,8.7,3.6,12.2l15.1-34.4C11.1,330.3,3,339.5,3,350.6z"/>
		<path id="XMLID_518_" class="st0" d="M29.2,328.5l15.1,34.3c2.3-3.5,3.6-7.7,3.6-12.2C47.9,339.5,39.8,330.3,29.2,328.5z"/>
		<path id="XMLID_524_" class="st0" d="M25.4,328.2c-0.2,0-0.5,0-0.7,0L8.4,365.3c4.1,4.8,10.2,7.8,17,7.8s12.9-3,17-7.8l-16.3-37.1
			C25.9,328.2,25.7,328.2,25.4,328.2z M29,349.8h3.8v1H29c-0.3,2-1.8,3-3.6,3s-3.3-1-3.6-3h-4v-1h4.1c0.3-2,1.8-3,3.6-3
			C27.2,346.8,28.7,347.8,29,349.8z"/>
	</g>
</g>
</svg>
