<?xml version="1.0" encoding="utf-8"?>
<!-- Generator: Adobe Illustrator 19.0.0, SVG Export Plug-In . SVG Version: 6.00 Build 0)  -->
<svg version="1.1" id="Calque_1" xmlns="http://www.w3.org/2000/svg" xmlns:xlink="http://www.w3.org/1999/xlink" x="0px" y="0px"
	 viewBox="0 0 40 40" style="enable-background:new 0 0 40 40;" xml:space="preserve">
<style type="text/css">
	.st0{fill:#2B4158;}
</style>
<g>
	<path class="st0" d="M20,0C9,0,0,9,0,20c0,11,9,20,20,20c11,0,20-9,20-20C40,9,31,0,20,0L20,0z M31.5,31v-0.8
		c0-2.7-3.1-3.7-4.8-4.4c-0.6-0.3-1.8-0.8-2.9-1.4c-0.4-0.2-0.8-0.7-0.8-1.2l-0.1-1.3c0.9-0.8,1.7-2,1.9-3.3h0.2
		c0.3,0,0.6-0.2,0.7-0.5l0.3-2c0-0.4-0.4-0.7-0.7-0.7c0,0,0-0.1,0-0.1c0-0.2,0.1-0.5,0.1-0.7c0-0.2,0-0.4,0-0.6
		c0-0.9-0.1-1.8-0.4-2.2c-0.3-0.6-0.7-1.3-1.2-1.8c-1.6-1.5-3.4-2.1-4.9-0.9c-1.1-0.2-2.3,0.3-3.2,1.4c-0.5,0.6-0.8,1.2-0.9,1.9
		c-0.1,0.4-0.2,0.9-0.2,1.4c0,0.6,0,1.1,0.1,1.6c-0.3,0-0.6,0.3-0.6,0.7l0.3,2c0,0.3,0.4,0.5,0.7,0.5h0.2c0.3,1.4,1,2.6,1.9,3.4
		l-0.1,1.2c0,0.4-0.4,1-0.8,1.2c-1.1,0.6-2.3,1.1-2.9,1.4c-1.6,0.7-4.8,1.7-4.8,4.4v0.6C5.7,28,4,24.2,4,20c0-8.8,7.2-16,16-16
		s16,7.2,16,16C36,24.3,34.3,28.2,31.5,31L31.5,31z M31.5,31"/>
</g>
</svg>
