<?xml version="1.0" encoding="utf-8"?>
<!-- Generator: Adobe Illustrator 19.0.0, SVG Export Plug-In . SVG Version: 6.00 Build 0)  -->
<svg version="1.1" id="Calque_1" xmlns="http://www.w3.org/2000/svg" xmlns:xlink="http://www.w3.org/1999/xlink" x="0px" y="0px"
	 viewBox="176.4 228.4 332.4 383.6" style="enable-background:new 176.4 228.4 332.4 383.6;" xml:space="preserve">
<style type="text/css">
	.st0{fill:#2A4158;}
</style>
<path class="st0" d="M342.6,612c-91.6,0-166.2-74.6-166.2-166.2c0-36.5,11.6-71.2,33.6-100.2c17.7-23.4,41.6-41.8,68.4-53.1v27.7
	c-13.1,6.7-25,15.4-35.5,25.9c-26.6,26.6-41.3,62-41.3,99.7s14.7,73.1,41.3,99.7c26.6,26.6,62,41.3,99.7,41.3s73.1-14.7,99.7-41.3
	s41.3-62,41.3-99.7s-14.7-73.1-41.3-99.7c-10.5-10.5-22.5-19.2-35.5-25.9v-27.7c26.8,11.3,50.7,29.7,68.4,53.1
	c22,29,33.6,63.7,33.6,100.2C508.8,537.5,434.2,612,342.6,612z M330,407.2V228.4h25.2v178.8H330z"/>
</svg>
