<?xml version="1.0" encoding="utf-8"?>
<!-- Generator: Adobe Illustrator 19.0.0, SVG Export Plug-In . SVG Version: 6.00 Build 0)  -->
<svg version="1.1" id="Calque_1" xmlns="http://www.w3.org/2000/svg" xmlns:xlink="http://www.w3.org/1999/xlink" x="0px" y="0px"
	 viewBox="9.1 313.5 351.7 351.6" style="enable-background:new 9.1 313.5 351.7 351.6;" xml:space="preserve">
<style type="text/css">
	.st0{fill:#2A4158;}
</style>
<g id="XMLID_2_">
	<path id="XMLID_6_" class="st0" d="M214.4,665.1c-4.3,0-7.8-3.5-7.8-7.8v-13.9c0-8-6.1-16.1-14.1-19c-3.3-1.2-6.7-2.6-10-4.2
		c-2.8-1.3-6-2-9.2-2c-5.5,0-10.7,2-14.2,5.5l-9.9,9.9c-1.5,1.5-3.4,2.3-5.5,2.3s-4-0.8-5.5-2.3l-16.1-16.1c-3-3-3-8,0-11l9.9-9.9
		c5.7-5.7,7.1-15.7,3.4-23.4c-1.6-3.3-3-6.7-4.2-10c-2.8-8-11-14.1-19-14.1H98.3c-4.3,0-7.8-3.5-7.8-7.8v-22.7
		c0-4.3,3.5-7.8,7.8-7.8h13.9c8,0,16.1-6,19-14.1c1.2-3.3,2.6-6.7,4.2-10c3.7-7.7,2.2-17.7-3.4-23.4l-9.9-9.9
		c-1.5-1.5-2.3-3.4-2.3-5.5s0.8-4,2.3-5.5l16.1-16.1c1.5-1.5,3.4-2.3,5.5-2.3s4,0.8,5.5,2.3l9.9,9.9c3.5,3.5,8.6,5.5,14.2,5.5
		c3.3,0,6.5-0.7,9.2-2c3.3-1.6,6.6-3,10.1-4.2c8-2.8,14.1-11,14.1-19v-13.9c0-4.3,3.5-7.8,7.8-7.8h22.7c4.3,0,7.8,3.5,7.8,7.8v13.9
		c0,8,6.1,16.2,14.1,19c3.3,1.2,6.7,2.6,10,4.2c2.7,1.3,5.9,2,9.2,2c5.5,0,10.7-2,14.2-5.5l9.9-9.9c1.5-1.5,3.4-2.3,5.5-2.3
		s4,0.8,5.5,2.3l16,16c1.5,1.5,2.3,3.4,2.3,5.5s-0.8,4-2.3,5.5l-9.9,9.9c-5.7,5.7-7.1,15.7-3.4,23.4c1.6,3.3,3,6.6,4.2,10
		c2.9,8.1,11,14.1,19,14.1H353c4.3,0,7.8,3.5,7.8,7.8v22.7c0,4.3-3.5,7.8-7.8,7.8h-13.9c-8,0-16.1,6.1-19,14.1
		c-1.2,3.4-2.6,6.8-4.2,10c-3.7,7.7-2.3,17.7,3.4,23.4l9.9,9.9c3,3,3,8,0,11l-16.1,16.1c-1.5,1.5-3.4,2.3-5.5,2.3s-4-0.8-5.5-2.3
		l-9.9-9.9c-3.5-3.5-8.6-5.5-14.2-5.5c-3.3,0-6.5,0.7-9.2,2c-3.3,1.6-6.7,3-10,4.2c-8,2.8-14.1,11-14.1,19v13.9
		c0,4.3-3.5,7.8-7.8,7.8h-22.5L214.4,665.1L214.4,665.1z M225.7,468c-34.2,0-62.1,27.8-62.1,62.1c0,34.2,27.8,62.1,62.1,62.1
		c34.2,0,62.1-27.8,62.1-62.1C287.8,495.9,259.9,468,225.7,468z"/>
	<path id="XMLID_3_" class="st0" d="M68.7,444.2c-1,0-1.8-0.8-1.8-1.8v-7c0-4.9-3.5-9.7-8.4-11.4c-1.6-0.6-3.2-1.2-4.8-2
		c-1.7-0.8-3.6-1.2-5.5-1.2c-3.3,0-6.4,1.2-8.5,3.3l-4.9,4.9c-0.4,0.4-0.8,0.5-1.3,0.5s-0.9-0.2-1.3-0.5l-8-8
		c-0.4-0.4-0.5-0.8-0.5-1.3s0.2-0.9,0.5-1.3l4.9-4.9c3.5-3.5,4.4-9.4,2.1-14.1c-0.7-1.5-1.4-3.1-2-4.7c-1.8-4.9-6.6-8.4-11.4-8.4
		h-6.9c-1,0-1.8-0.8-1.8-1.8v-11.3c0-1,0.8-1.8,1.8-1.8h7c4.9,0,9.7-3.5,11.4-8.4c0.6-1.7,1.3-3.3,2-4.8c2.3-4.6,1.4-10.5-2.1-14
		l-4.9-4.9c-0.7-0.7-0.7-1.9,0-2.6l8-8c0.4-0.4,0.8-0.5,1.3-0.5s0.9,0.2,1.3,0.5l5,4.9c2.1,2.1,5.2,3.3,8.5,3.3
		c1.9,0,3.8-0.4,5.5-1.2c1.6-0.8,3.2-1.4,4.8-2c4.9-1.8,8.4-6.6,8.4-11.4v-7c0-1,0.8-1.8,1.8-1.8h11.4c1,0,1.8,0.8,1.8,1.8v7
		c0,4.9,3.5,9.7,8.4,11.4c1.7,0.6,3.3,1.3,4.8,2h0.1c1.6,0.8,3.5,1.2,5.4,1.2c3.3,0,6.4-1.2,8.5-3.4l4.9-4.9
		c0.4-0.4,0.8-0.5,1.3-0.5s0.9,0.2,1.3,0.5l8,8c0.7,0.7,0.7,1.9,0,2.6l-4.9,4.9c-3.5,3.5-4.4,9.3-2.1,14c0.8,1.6,1.4,3.2,2,4.9
		c1.7,4.9,6.5,8.4,11.4,8.4h7c1,0,1.8,0.8,1.8,1.8v11.4c0,1-0.8,1.8-1.8,1.8h-7c-4.9,0-9.7,3.6-11.4,8.5c-0.6,1.6-1.2,3.2-2,4.8
		c-2.2,4.7-1.3,10.6,2.1,14l5,4.9c0.4,0.4,0.5,0.9,0.5,1.3c0,0.4-0.1,0.9-0.5,1.3l-8,8c-0.4,0.4-0.8,0.5-1.3,0.5s-0.9-0.2-1.3-0.5
		l-5.1-5.1l-0.1-0.1c-2.1-2-5.1-3.1-8.3-3.1c-2,0-3.9,0.4-5.5,1.2c-1.5,0.7-3.1,1.4-4.8,2c-4.9,1.8-8.4,6.5-8.4,11.4v7
		c0,1-0.8,1.8-1.8,1.8L68.7,444.2L68.7,444.2z M74.4,345.7c-18.2,0-33.1,14.8-33.1,33.1c0,18.2,14.8,33.1,33.1,33.1
		c18.2,0,33.1-14.8,33.1-33.1C107.4,360.5,92.6,345.7,74.4,345.7z"/>
</g>
</svg>
