<?xml version="1.0" encoding="utf-8"?>
<!-- Generator: Adobe Illustrator 19.0.0, SVG Export Plug-In . SVG Version: 6.00 Build 0)  -->
<svg version="1.1" id="Calque_1" xmlns="http://www.w3.org/2000/svg" xmlns:xlink="http://www.w3.org/1999/xlink" x="0px" y="0px"
	 viewBox="0 0 25.6 25.6" style="enable-background:new 0 0 25.6 25.6;" xml:space="preserve">
<style type="text/css">
	.st0{fill-rule:evenodd;clip-rule:evenodd;fill:#E5B027;}
</style>
<g>
	<path class="st0" d="M17.6,9.2c0-0.3-0.1-0.6-0.3-0.8C17,8.1,16.7,8,16.4,8c-0.3,0-0.6,0.1-0.9,0.3l-2.7,2.8l-2.8-2.8
		C9.8,8.1,9.5,8,9.2,8C8.9,8,8.6,8.1,8.4,8.4C8.1,8.6,8,8.9,8,9.2C8,9.5,8.1,9.8,8.4,10l2.8,2.8l-2.8,2.8C8.1,15.8,8,16.1,8,16.4
		c0,0.3,0.1,0.6,0.3,0.8c0.2,0.2,0.5,0.3,0.8,0.3c0.3,0,0.6-0.1,0.9-0.3l2.8-2.8l2.7,2.8c0.2,0.2,0.6,0.4,0.9,0.3
		c0.3,0,0.6-0.1,0.8-0.3c0.2-0.2,0.3-0.5,0.3-0.8c0-0.3-0.1-0.7-0.3-0.9l-2.7-2.8l2.7-2.8C17.5,9.8,17.6,9.5,17.6,9.2L17.6,9.2z
		 M12.8,0C5.7,0,0,5.7,0,12.8c0,7.1,5.7,12.8,12.8,12.8c7.1,0,12.8-5.7,12.8-12.8C25.6,5.7,19.9,0,12.8,0L12.8,0z M12.8,23.2
		c-5.7,0-10.4-4.7-10.4-10.4c0-5.7,4.7-10.4,10.4-10.4c5.7,0,10.4,4.7,10.4,10.4C23.2,18.5,18.5,23.2,12.8,23.2L12.8,23.2z
		 M12.8,23.2"/>
</g>
</svg>
