<?xml version="1.0" encoding="utf-8"?>
<!-- Generator: Adobe Illustrator 19.0.0, SVG Export Plug-In . SVG Version: 6.00 Build 0)  -->
<svg version="1.1" id="Calque_1" xmlns="http://www.w3.org/2000/svg" xmlns:xlink="http://www.w3.org/1999/xlink" x="0px" y="0px"
	 viewBox="143.4 52.4 353.2 393.3" style="enable-background:new 143.4 52.4 353.2 393.3;" xml:space="preserve">
<g id="XMLID_2_">
	<path id="XMLID_19_" d="M472.7,52.4H242.9c-13.2,0-23.9,10.7-23.9,23.8v53.4c-43.6,12.5-75.6,52.7-75.6,100.2s32,87.8,75.6,100.2
		v91.8c0,13.2,10.7,23.9,23.9,23.9h187.8c2.2,0,4.4-0.9,5.9-2.5l57.5-57.5c1.6-1.6,2.5-3.7,2.5-5.9V76.2
		C496.5,63.1,485.8,52.4,472.7,52.4L472.7,52.4z M242.9,69.2h229.8c3.9,0,7.1,3.2,7.1,7v25.4h-244V76.2
		C235.8,72.3,239,69.2,242.9,69.2L242.9,69.2z M160.3,229.8c0-48.2,39.2-87.4,87.4-87.4s87.4,39.2,87.4,87.4s-39.2,87.4-87.4,87.4
		C199.5,317.3,160.3,278,160.3,229.8L160.3,229.8z M235.8,421.9v-88.5c3.9,0.4,7.8,0.7,11.8,0.7c31.3,0,59.4-13.9,78.6-35.8h51.5
		c4.6,0,8.4-3.8,8.4-8.4s-3.8-8.4-8.4-8.4h-39.5c7.3-12.8,12-27.2,13.3-42.6h26.2c4.6,0,8.4-3.8,8.4-8.4c0-4.6-3.8-8.4-8.4-8.4
		h-26.1c-1.1-15.4-5.6-29.8-12.7-42.6h38.8c4.6,0,8.4-3.8,8.4-8.4c0-4.6-3.8-8.4-8.4-8.4h-50.4c-19.1-22.7-47.7-37.1-79.6-37.1
		c-4,0-8,0.2-11.8,0.7v-7.9h243.9v253.1h-33.6c-13.2,0-23.9,10.7-23.9,23.8v33.6H242.9C239,428.9,235.8,425.8,235.8,421.9
		L235.8,421.9z M439.1,417v-21.7c0-3.9,3.2-7.1,7-7.1h21.7L439.1,417z"/>
	<path id="XMLID_16_" d="M410.7,179.5h27.9c4.6,0,8.4-3.8,8.4-8.4c0-4.6-3.8-8.4-8.4-8.4h-27.9c-4.6,0-8.4,3.8-8.4,8.4
		C402.3,175.7,406.1,179.5,410.7,179.5L410.7,179.5z"/>
	<path id="XMLID_13_" d="M410.7,238.9h27.9c4.6,0,8.4-3.8,8.4-8.4c0-4.6-3.8-8.4-8.4-8.4h-27.9c-4.6,0-8.4,3.8-8.4,8.4
		C402.3,235.1,406.1,238.9,410.7,238.9L410.7,238.9z"/>
	<path id="XMLID_10_" d="M410.7,298.3h27.9c4.6,0,8.4-3.8,8.4-8.4s-3.8-8.4-8.4-8.4h-27.9c-4.6,0-8.4,3.8-8.4,8.4
		C402.3,294.5,406.1,298.3,410.7,298.3L410.7,298.3z"/>
	<path id="XMLID_7_" d="M438.6,357.6c4.6,0,8.4-3.8,8.4-8.4s-3.8-8.4-8.4-8.4H360c-4.6,0-8.4,3.8-8.4,8.4s3.8,8.4,8.4,8.4H438.6z"/>
	<path id="XMLID_3_" d="M312.9,187.4l-10.2-10.2c-2.8-2.8-6.4-4.3-10.3-4.3s-7.6,1.5-10.3,4.3l-53.8,53.7L213.4,216
		c-2.8-2.8-6.4-4.3-10.3-4.3c-3.9,0-7.6,1.5-10.3,4.3l-10.3,10.3c-5.7,5.7-5.7,15,0,20.7l35.4,35.4c2.8,2.8,6.4,4.3,10.3,4.3
		c3.9,0,7.6-1.5,10.3-4.3l74.3-74.3C318.6,202.4,318.6,193.1,312.9,187.4L312.9,187.4z M228.2,269l-32.3-32.3l7.2-7.2l19.3,19.3
		c3.3,3.3,8.6,3.3,11.9,0l58.1-58.1l7.2,7.2L228.2,269z"/>
</g>
</svg>
