<?xml version="1.0" encoding="utf-8"?>
<!-- Generator: Adobe Illustrator 19.0.0, SVG Export Plug-In . SVG Version: 6.00 Build 0)  -->
<svg version="1.1" id="Calque_1" xmlns="http://www.w3.org/2000/svg" xmlns:xlink="http://www.w3.org/1999/xlink" x="0px" y="0px"
	 viewBox="130.8 52.2 353.2 393.3" style="enable-background:new 130.8 52.2 353.2 393.3;" xml:space="preserve">
<g id="XMLID_5_">
	<path id="XMLID_18_" d="M460.1,52.2H230.3c-13.2,0-23.9,10.7-23.9,23.8v53.4c-43.6,12.5-75.6,52.7-75.6,100.2s32,87.8,75.6,100.2
		v91.8c0,13.2,10.7,23.9,23.9,23.9h187.8c2.2,0,4.4-0.9,5.9-2.5l57.5-57.5c1.6-1.6,2.5-3.7,2.5-5.9V76
		C484,62.9,473.3,52.2,460.1,52.2L460.1,52.2z M230.3,69h229.8c3.9,0,7.1,3.2,7.1,7v25.4H223.3V76C223.3,72.1,226.4,69,230.3,69
		L230.3,69z M147.7,229.6c0-48.2,39.2-87.4,87.4-87.4s87.4,39.2,87.4,87.4S283.3,317,235.1,317C186.9,317.1,147.7,277.8,147.7,229.6
		L147.7,229.6z M223.3,421.7v-88.5c3.9,0.4,7.8,0.7,11.8,0.7c31.3,0,59.4-13.9,78.6-35.8h51.5c4.6,0,8.4-3.8,8.4-8.4
		s-3.8-8.4-8.4-8.4h-39.5c7.3-12.8,12-27.2,13.3-42.6h26.2c4.6,0,8.4-3.8,8.4-8.4c0-4.6-3.8-8.4-8.4-8.4H339
		c-1.1-15.4-5.6-29.8-12.7-42.6h38.8c4.6,0,8.4-3.8,8.4-8.4c0-4.6-3.8-8.4-8.4-8.4h-50.4c-19.1-22.7-47.7-37.1-79.6-37.1
		c-4,0-8,0.2-11.8,0.7v-7.9h243.9v253.1h-33.6c-13.2,0-23.9,10.7-23.9,23.8v33.6H230.3C226.4,428.7,223.3,425.6,223.3,421.7
		L223.3,421.7z M426.5,416.8v-21.7c0-3.9,3.2-7.1,7-7.1h21.7L426.5,416.8z"/>
	<path id="XMLID_15_" d="M398.1,179.3H426c4.6,0,8.4-3.8,8.4-8.4c0-4.6-3.8-8.4-8.4-8.4h-27.9c-4.6,0-8.4,3.8-8.4,8.4
		S393.5,179.3,398.1,179.3L398.1,179.3z"/>
	<path id="XMLID_12_" d="M398.1,238.7H426c4.6,0,8.4-3.8,8.4-8.4c0-4.6-3.8-8.4-8.4-8.4h-27.9c-4.6,0-8.4,3.8-8.4,8.4
		S393.5,238.7,398.1,238.7L398.1,238.7z"/>
	<path id="XMLID_9_" d="M398.1,298.1H426c4.6,0,8.4-3.8,8.4-8.4s-3.8-8.4-8.4-8.4h-27.9c-4.6,0-8.4,3.8-8.4,8.4
		C389.7,294.3,393.5,298.1,398.1,298.1L398.1,298.1z"/>
	<path id="XMLID_6_" d="M426,357.4c4.6,0,8.4-3.8,8.4-8.4s-3.8-8.4-8.4-8.4h-78.6c-4.6,0-8.4,3.8-8.4,8.4s3.8,8.4,8.4,8.4H426z"/>
</g>
<path id="XMLID_2_" d="M268.5,263.2c-7.2,7.5-16.3,11.7-25.8,11.7c-15.5,0-29-10.9-35.3-26.7h43.2c3.7,0,6.8-3,6.8-6.8
	c0-3.7-3-6.8-6.8-6.8H204c-0.3-2.2-0.4-4.5-0.4-6.8c0-2.6,0.2-5.1,0.5-7.6h46.5c3.7,0,6.8-3,6.8-6.8c0-3.7-3-6.8-6.8-6.8h-42.8
	c6.5-15.3,19.7-25.8,35-25.8c9.5,0,18.6,4.1,25.8,11.7c2.6,2.7,6.9,2.8,9.6,0.2s2.8-6.9,0.2-9.6c-9.7-10.2-22.4-15.9-35.6-15.9
	c-22.6,0-41.9,16.4-49.4,39.4h-18.2c-3.7,0-6.8,3-6.8,6.8c0,3.7,3,6.8,6.8,6.8h15.3c-0.3,2.5-0.4,5-0.4,7.6c0,2.3,0.1,4.5,0.3,6.8
	h-15.2c-3.7,0-6.8,3-6.8,6.8c0,3.7,3,6.8,6.8,6.8H193c7.3,23.4,26.8,40.2,49.7,40.2c13.2,0,25.9-5.6,35.6-15.9
	c2.6-2.7,2.5-7-0.2-9.6C275.4,260.3,271.1,260.5,268.5,263.2L268.5,263.2z"/>
</svg>
