<?xml version="1.0" encoding="utf-8"?>
<!-- Generator: Adobe Illustrator 19.0.0, SVG Export Plug-In . SVG Version: 6.00 Build 0)  -->
<svg version="1.1" id="Calque_1" xmlns="http://www.w3.org/2000/svg" xmlns:xlink="http://www.w3.org/1999/xlink" x="0px" y="0px"
	 viewBox="42.2 131.4 188.7 44.9" style="enable-background:new 42.2 131.4 188.7 44.9;" xml:space="preserve">
<style type="text/css">
	.st0{fill:#E5B028;}
</style>
<g id="XMLID_629_">
	<path id="XMLID_631_" class="st0" d="M105.9,141.2c-0.2-0.4-0.5-0.6-0.9-0.6s-0.8,0.2-0.9,0.6l-10.7,24.4l-0.6,1.4h2.3l0.2-0.6
		l9.8-22.2l9.8,22.2l0.1,0.6h2.3l-0.6-1.4L105.9,141.2z"/>
	<path id="XMLID_665_" class="st0" d="M134.9,153.4c1.9-1.3,3-3.3,3-5.5c0-3.8-3.5-7-7.7-7h-8.9c-0.6,0-1,0.4-1,1v11.8l-0.1,1l0,0
		v11.1c0,0.6,0.4,1.2,1,1.2h10.4c2,0,3.9-0.9,5.4-2.2c1.5-1.3,2.3-3.2,2.3-5C139.4,157.1,137.5,154.5,134.9,153.4z M130.2,143
		c3.1,0,5.6,2.2,5.6,4.9s-2.5,4.9-5.6,4.9h-7.8V143C122.4,143,130.2,143,130.2,143z M131.7,155c3.1,0,5.6,2.1,5.6,4.8
		c0,2.7-2.5,4.9-5.6,4.9l-9.3,0.1V155H131.7z"/>
	<path id="XMLID_667_" class="st0" d="M153.3,141.2c-0.2-0.4-0.5-0.6-0.9-0.6s-0.8,0.2-0.9,0.6l-10.7,24.4l-0.6,1.4h2.3l0.2-0.6
		l9.8-22.2l9.8,22.2l0.2,0.6h2.3l-0.6-1.4L153.3,141.2z"/>
	<polygon id="XMLID_668_" class="st0" points="188,141 184.9,141 184.6,141.2 172.2,153 169,153 169,141 167,141 167,167 169,167 
		169,155 172.2,155 184.6,166.8 184.9,167 188,167 186.1,165.3 174.1,153.8 186.1,142.6 	"/>
	<path id="XMLID_669_" class="st0" d="M206,158.4c0,3.6-3.1,6.6-7.2,6.6s-7.3-3-7.3-6.6l0.1-16.5l0.2-0.9H189v17.4
		c0,2.3,1.3,4.5,3.1,6.1c1.8,1.6,4.3,2.5,6.9,2.5s5-0.9,6.8-2.5c1.8-1.6,2.8-3.8,2.8-6.1l0.1-16.5l0.1-0.9H206V158.4z"/>
	<path id="XMLID_670_" class="st0" d="M227.9,155.4c-1.7-1.1-3.9-1.9-6-2.7c-2-0.7-3.8-1.4-5.2-2.3c-1.4-0.9-2.1-1.7-2.1-2.7
		c0-1.3,0.7-2.6,1.9-3.5c1.3-1,3-1.5,4.8-1.5s3.5,0.5,4.8,1.5c1.2,1,1.9,2.2,1.9,3.5v1.3h2v-1.3c0-1.9-0.9-3.7-2.5-5.1
		c-1.7-1.3-3.8-2.1-6.2-2.1s-4.5,0.7-6.2,2.1c-1.7,1.4-2.6,3.2-2.6,5.1c0,1.7,1,3.2,3,4.5c1.7,1,3.8,1.9,5.9,2.6
		c2,0.7,3.9,1.4,5.3,2.3s2.1,1.8,2.1,2.8c0,1.3-0.8,2.5-2.2,3.5c-1.4,1-3.4,1.6-5.3,1.6c-2,0-3.8-0.6-5.3-1.6c-1.4-1-2-2.2-2-3.5
		V159h-2v0.9c0,1,0.1,1.9,0.6,2.8s1.1,1.6,2,2.3c1.8,1.3,4.2,2.1,6.7,2.1s4.9-0.7,6.7-2.1c1.8-1.4,2.9-3.2,2.9-5.1
		C230.9,158.2,229.9,156.7,227.9,155.4z"/>
</g>
<g id="XMLID_166_">
	<path id="XMLID_488_" class="st0" d="M42.2,153.8c0,4.5,1.3,8.7,3.6,12.2l15.1-34.4C50.3,133.5,42.2,142.7,42.2,153.8z"/>
	<path id="XMLID_518_" class="st0" d="M68.4,131.7L83.5,166c2.3-3.5,3.6-7.7,3.6-12.2C87.1,142.7,79,133.5,68.4,131.7z"/>
	<path id="XMLID_524_" class="st0" d="M64.6,131.4c-0.2,0-0.5,0-0.7,0l-16.3,37.1c4.1,4.8,10.2,7.8,17,7.8s12.9-3,17-7.8l-16.3-37.1
		C65.1,131.4,64.9,131.4,64.6,131.4z M68.2,153H72v1h-3.8c-0.3,2-1.8,3-3.6,3s-3.3-1-3.6-3h-4v-1h4.1c0.3-2,1.8-3,3.6-3
		C66.4,150,67.9,151,68.2,153z"/>
</g>
</svg>
