<?xml version="1.0" encoding="utf-8"?>
<!-- Generator: Adobe Illustrator 19.0.0, SVG Export Plug-In . SVG Version: 6.00 Build 0)  -->
<svg version="1.1" id="Calque_1" xmlns="http://www.w3.org/2000/svg" xmlns:xlink="http://www.w3.org/1999/xlink" x="0px" y="0px"
	 viewBox="10.8 276.8 353.2 393.3" style="enable-background:new 10.8 276.8 353.2 393.3;" xml:space="preserve">
<style type="text/css">
	.st0{fill:#2A4158;}
</style>
<g id="XMLID_5_">
	<path id="XMLID_18_" class="st0" d="M340.1,276.8H110.3c-13.2,0-23.9,10.7-23.9,23.8V354c-43.6,12.5-75.6,52.7-75.6,100.2
		s32,87.8,75.6,100.2v91.8c0,13.2,10.7,23.9,23.9,23.9h187.8c2.2,0,4.4-0.9,5.9-2.5l57.5-57.5c1.6-1.6,2.5-3.7,2.5-5.9V300.6
		C364,287.5,353.3,276.8,340.1,276.8L340.1,276.8z M110.3,293.6h229.8c3.9,0,7.1,3.2,7.1,7V326H103.3v-25.4
		C103.3,296.7,106.4,293.6,110.3,293.6L110.3,293.6z M27.7,454.2c0-48.2,39.2-87.4,87.4-87.4s87.4,39.2,87.4,87.4
		s-39.2,87.4-87.4,87.4C66.9,541.7,27.7,502.4,27.7,454.2L27.7,454.2z M103.3,646.3v-88.5c3.9,0.4,7.8,0.7,11.8,0.7
		c31.3,0,59.4-13.9,78.6-35.8h51.5c4.6,0,8.4-3.8,8.4-8.4c0-4.6-3.8-8.4-8.4-8.4h-39.5c7.3-12.8,12-27.2,13.3-42.6h26.2
		c4.6,0,8.4-3.8,8.4-8.4s-3.8-8.4-8.4-8.4H219c-1.1-15.4-5.6-29.8-12.7-42.6h38.8c4.6,0,8.4-3.8,8.4-8.4s-3.8-8.4-8.4-8.4h-50.4
		C175.6,364.4,147,350,115.1,350c-4,0-8,0.2-11.8,0.7v-7.9h243.9v253.1h-33.6c-13.2,0-23.9,10.7-23.9,23.8v33.6H110.3
		C106.4,653.3,103.3,650.2,103.3,646.3L103.3,646.3z M306.5,641.4v-21.7c0-3.9,3.2-7.1,7-7.1h21.7L306.5,641.4z"/>
	<path id="XMLID_15_" class="st0" d="M278.1,403.9H306c4.6,0,8.4-3.8,8.4-8.4c0-4.6-3.8-8.4-8.4-8.4h-27.9c-4.6,0-8.4,3.8-8.4,8.4
		C269.7,400.1,273.5,403.9,278.1,403.9L278.1,403.9z"/>
	<path id="XMLID_12_" class="st0" d="M278.1,463.3H306c4.6,0,8.4-3.8,8.4-8.4c0-4.6-3.8-8.4-8.4-8.4h-27.9c-4.6,0-8.4,3.8-8.4,8.4
		C269.7,459.5,273.5,463.3,278.1,463.3L278.1,463.3z"/>
	<path id="XMLID_9_" class="st0" d="M278.1,522.7H306c4.6,0,8.4-3.8,8.4-8.4c0-4.6-3.8-8.4-8.4-8.4h-27.9c-4.6,0-8.4,3.8-8.4,8.4
		C269.7,518.9,273.5,522.7,278.1,522.7L278.1,522.7z"/>
	<path id="XMLID_6_" class="st0" d="M306,582c4.6,0,8.4-3.8,8.4-8.4c0-4.6-3.8-8.4-8.4-8.4h-78.6c-4.6,0-8.4,3.8-8.4,8.4
		c0,4.6,3.8,8.4,8.4,8.4H306z"/>
</g>
<path id="XMLID_2_" class="st0" d="M148.5,487.8c-7.2,7.5-16.3,11.7-25.8,11.7c-15.5,0-29-10.9-35.3-26.7h43.2c3.7,0,6.8-3,6.8-6.8
	c0-3.7-3-6.8-6.8-6.8H84c-0.3-2.2-0.4-4.5-0.4-6.8c0-2.6,0.2-5.1,0.5-7.6h46.5c3.7,0,6.8-3,6.8-6.8c0-3.7-3-6.8-6.8-6.8H87.8
	c6.5-15.3,19.7-25.8,35-25.8c9.5,0,18.6,4.1,25.8,11.7c2.6,2.7,6.9,2.8,9.6,0.2s2.8-6.9,0.2-9.6c-9.7-10.2-22.4-15.9-35.6-15.9
	c-22.6,0-41.9,16.4-49.4,39.4H55.2c-3.7,0-6.8,3-6.8,6.8c0,3.7,3,6.8,6.8,6.8h15.3c-0.3,2.5-0.4,5-0.4,7.6c0,2.3,0.1,4.5,0.3,6.8
	H55.2c-3.7,0-6.8,3-6.8,6.8c0,3.7,3,6.8,6.8,6.8H73c7.3,23.4,26.8,40.2,49.7,40.2c13.2,0,25.9-5.6,35.6-15.9c2.6-2.7,2.5-7-0.2-9.6
	C155.4,484.9,151.1,485.1,148.5,487.8L148.5,487.8z"/>
</svg>
